<?xml version="1.0" standalone="no"?>
<!DOCTYPE svg PUBLIC "-//W3C//DTD SVG 20010904//EN"
 "http://www.w3.org/TR/2001/REC-SVG-20010904/DTD/svg10.dtd">
<svg version="1.0" xmlns="http://www.w3.org/2000/svg"
 width="166.000000pt" height="166.000000pt" viewBox="0 0 166.000000 166.000000"
 preserveAspectRatio="xMidYMid meet">
<metadata>
Created by potrace 1.14, written by Peter Selinger 2001-2017
</metadata>
<g transform="translate(0.000000,166.000000) scale(0.100000,-0.100000)"
fill="#000000" stroke="none">
<path d="M820 1189 c-19 -4 -51 -15 -70 -24 -33 -15 -33 -16 -5 -9 90 20 163
-3 186 -59 20 -46 16 -163 -4 -178 -15 -11 -11 -170 5 -185 18 -18 113 -21
133 -4 11 9 15 34 15 101 0 87 -1 89 -23 89 -22 0 -24 -4 -24 -52 -1 -112 0
-108 -33 -108 -16 0 -30 3 -31 8 -8 62 -1 133 16 167 28 58 31 169 4 207 -11
15 -29 33 -40 38 -27 15 -87 19 -129 9z m150 -269 c0 -5 -2 -10 -4 -10 -3 0
-8 5 -11 10 -3 6 -1 10 4 10 6 0 11 -4 11 -10z"/>
<path d="M710 1103 c-62 -21 -143 -76 -189 -129 -35 -40 -43 -44 -83 -44 -63
0 -76 -18 -74 -106 1 -45 6 -77 15 -88 12 -14 12 -19 2 -25 -15 -10 -20 -58
-8 -94 14 -43 53 -67 106 -67 l46 1 -40 14 c-22 8 -41 15 -42 15 -10 1 -32 64
-34 99 l-3 44 48 1 c35 1 51 6 62 20 23 32 18 56 -11 56 -16 0 -25 -6 -25 -15
0 -15 -3 -16 -42 -18 -21 -1 -23 3 -23 58 0 58 0 59 29 61 20 1 30 -4 33 -17
4 -12 13 -17 27 -15 27 4 33 32 10 57 -9 10 -13 19 -7 19 5 0 25 14 44 31 87
79 173 120 234 112 45 -6 85 -51 87 -96 1 -21 4 -33 8 -27 11 19 2 101 -15
127 -29 44 -80 53 -155 26z"/>
<path d="M7 923 c-2 -5 -3 -50 -3 -102 1 -90 2 -94 24 -97 19 -3 22 0 22 31 0
35 0 35 44 35 53 0 69 16 69 72 0 28 -6 45 -19 55 -19 14 -130 18 -137 6z
m108 -61 c1 -16 -5 -24 -21 -28 -29 -7 -44 2 -44 26 0 35 62 38 65 2z"/>
<path d="M201 837 c-17 -50 -31 -98 -31 -105 0 -20 41 -14 47 8 3 11 10 21 17
21 6 1 21 3 33 4 14 1 25 -6 32 -21 10 -23 51 -34 51 -14 0 5 -14 52 -32 105
-30 89 -34 95 -59 95 -26 0 -29 -6 -58 -93z m72 -7 c4 -15 0 -20 -15 -20 -14
0 -18 5 -14 16 3 9 6 20 6 25 0 17 17 1 23 -21z"/>
<path d="M559 928 c-1 -2 -2 -47 -3 -101 -2 -77 0 -100 11 -104 22 -9 36 13
36 52 0 19 1 35 2 35 1 0 16 -20 34 -45 24 -34 38 -44 57 -43 13 1 24 5 24 8
0 3 -16 27 -35 54 l-34 49 28 36 c44 57 45 61 17 61 -18 0 -35 -13 -61 -47
-25 -33 -36 -42 -35 -28 6 53 0 75 -20 75 -11 0 -20 -1 -21 -2z"/>
<path d="M795 920 c-37 -4 -51 -9 -53 -22 -2 -14 4 -18 28 -18 30 0 30 0 31
-57 1 -32 0 -68 -1 -80 -1 -13 3 -23 9 -23 17 0 -95 -102 -157 -143 -167 -110
-311 -78 -314 70 0 32 -3 42 -8 28 -14 -38 -4 -130 16 -158 73 -99 264 -45
441 126 45 43 60 63 51 69 -10 6 -10 8 0 8 8 0 12 23 12 80 l0 80 30 0 c23 0
30 5 30 19 0 22 -37 29 -115 21z"/>
<path d="M1109 863 c-1 -76 2 -137 7 -142 9 -9 126 -2 139 9 15 13 18 158 2
178 -6 7 -35 12 -78 12 l-69 0 -1 -57z m111 -3 c0 -16 -7 -20 -30 -20 -23 0
-30 4 -30 20 0 16 7 20 30 20 23 0 30 -4 30 -20z m0 -80 c0 -16 -7 -20 -30
-20 -23 0 -30 4 -30 20 0 16 7 20 30 20 23 0 30 -4 30 -20z"/>
<path d="M1300 901 c-16 -30 -13 -156 4 -170 18 -15 125 -16 139 -2 17 17 16
153 -1 174 -23 26 -127 24 -142 -2z m105 -81 c0 -55 0 -55 -32 -58 l-33 -3 0
61 0 61 33 -3 c32 -3 32 -3 32 -58z"/>
<path d="M1490 901 c-5 -11 -10 -29 -10 -41 0 -43 18 -60 64 -60 41 0 65 -17
49 -34 -13 -13 -63 -6 -63 8 0 10 -8 13 -21 11 -31 -6 -34 -12 -21 -40 12 -25
28 -30 97 -25 42 3 55 17 55 59 0 48 -14 61 -67 61 -36 0 -43 3 -43 20 0 16 7
20 35 20 21 0 34 -5 33 -11 -2 -6 7 -12 20 -14 16 -1 22 4 22 20 0 34 -20 45
-82 45 -46 0 -59 -4 -68 -19z"/>
</g>
</svg>
